<?xml version="1.0" encoding="utf-8"?>
<!-- Generator: Adobe Illustrator 22.0.1, SVG Export Plug-In . SVG Version: 6.00 Build 0)  -->
<svg version="1.1" id="Layer_1" xmlns="http://www.w3.org/2000/svg" xmlns:xlink="http://www.w3.org/1999/xlink" x="0px" y="0px"
	 viewBox="0 0 500 500" style="enable-background:new 0 0 500 500;" xml:space="preserve">
<style type="text/css">
	.st0{display:none;}
	.st1{display:inline;}
	.st2{fill:#43578C;}
</style>
<g id="sections_2" class="st0">
	<g class="st1">
		<path d="M50,400h400c21.8-29.1,37.5-63.1,45-100H5C12.5,336.9,28.2,370.9,50,400z"/>
	</g>
	<g class="st1">
		<path d="M5,200h490c-7.5-36.9-23.1-70.9-45-100H50C28.2,129.1,12.5,163.1,5,200z"/>
	</g>
</g>
<g id="sections_1">
	<g>
		<g>
			<path class="st2" d="M450,400H50c45.6,60.7,118.2,100,200,100S404.4,460.7,450,400z"/>
		</g>
		<g>
			<path class="st2" d="M495,300c3.3-16.2,5-32.9,5-50s-1.7-33.8-5-50H5c-3.3,16.2-5,32.9-5,50s1.7,33.8,5,50H495z"/>
		</g>
		<g>
			<path class="st2" d="M50,100h400C404.4,39.3,331.8,0,250,0S95.6,39.3,50,100z"/>
		</g>
	</g>
</g>
</svg>
