<?xml version="1.0" standalone="no"?>
<!DOCTYPE svg PUBLIC "-//W3C//DTD SVG 20010904//EN"
 "http://www.w3.org/TR/2001/REC-SVG-20010904/DTD/svg10.dtd">
<svg version="1.0" xmlns="http://www.w3.org/2000/svg"
 width="2084.000000pt" height="2084.000000pt" viewBox="0 0 2084.000000 2084.000000"
 preserveAspectRatio="xMidYMid meet">
<metadata>
Created by potrace 1.11, written by Peter Selinger 2001-2013
</metadata>
<g transform="translate(0.000000,2084.000000) scale(0.100000,-0.100000)"
fill="#000000" stroke="none">
<path d="M10088 20835 c-2 -2 -77 -6 -168 -9 -91 -4 -181 -8 -200 -11 -19 -2
-80 -7 -134 -10 -55 -4 -109 -8 -120 -10 -12 -2 -55 -6 -96 -10 -84 -7 -152
-14 -190 -20 -14 -2 -52 -7 -85 -11 -33 -3 -67 -8 -76 -9 -9 -2 -38 -6 -65 -9
-70 -9 -106 -14 -129 -19 -11 -3 -42 -8 -68 -11 -27 -4 -59 -9 -70 -12 -12 -2
-35 -6 -52 -8 -179 -23 -726 -147 -1040 -236 -38 -11 -104 -29 -145 -40 -109
-31 -493 -159 -655 -219 -120 -45 -171 -65 -310 -122 -11 -4 -49 -20 -85 -35
-63 -26 -102 -42 -205 -89 -27 -12 -84 -37 -125 -56 -70 -31 -587 -289 -620
-309 -26 -17 -263 -150 -266 -150 -1 0 -40 -23 -86 -51 -46 -28 -117 -72 -158
-97 -460 -279 -1107 -765 -1494 -1122 -27 -25 -81 -74 -120 -110 -114 -105
-474 -467 -571 -574 -50 -55 -97 -107 -105 -115 -13 -14 -79 -90 -157 -181
-12 -14 -31 -36 -44 -50 -12 -14 -56 -68 -98 -120 -42 -52 -78 -97 -81 -100
-3 -3 -21 -25 -40 -50 -19 -25 -37 -47 -40 -50 -3 -3 -27 -34 -53 -70 l-48
-65 4166 -3 c2291 -1 6040 -1 8331 0 l4166 3 -73 95 c-68 90 -221 282 -244
306 -5 6 -28 33 -50 60 -281 339 -730 797 -1101 1121 -424 372 -867 701 -1347
1002 -98 61 -180 111 -183 111 -3 0 -18 8 -32 19 -29 20 -33 22 -257 148 -159
89 -536 280 -695 352 -52 24 -117 54 -145 67 -100 46 -365 153 -560 226 -169
64 -297 107 -695 233 -166 53 -631 168 -870 215 -52 10 -108 21 -125 25 -67
13 -142 27 -175 31 -19 3 -57 9 -85 14 -58 11 -93 17 -155 25 -25 3 -56 8 -70
10 -14 2 -44 7 -67 10 -24 3 -60 7 -80 10 -21 3 -56 7 -78 10 -22 2 -58 6 -80
9 -22 3 -69 7 -105 11 -36 3 -85 8 -110 10 -74 7 -159 14 -255 20 -49 3 -124
8 -165 11 -72 6 -857 14 -862 9z"/>
<path d="M210 12484 c-13 -34 -77 -387 -96 -529 -3 -27 -8 -57 -9 -65 -2 -9
-6 -43 -10 -75 -4 -33 -9 -68 -11 -78 -2 -10 -6 -48 -10 -85 -3 -36 -7 -74 -9
-83 -2 -9 -6 -52 -10 -95 -4 -43 -8 -89 -10 -101 -2 -13 -7 -67 -10 -120 -4
-54 -8 -114 -10 -133 -24 -248 -25 -1148 -1 -1390 2 -19 7 -78 10 -130 7 -93
9 -114 21 -235 9 -89 25 -232 31 -273 5 -38 8 -59 19 -147 3 -27 10 -72 15
-100 5 -27 12 -68 15 -90 5 -37 13 -83 21 -130 2 -11 9 -47 14 -80 6 -33 14
-76 19 -95 4 -19 9 -39 9 -45 1 -5 5 -24 8 -40 l5 -30 10210 0 c5615 0 10209
0 10209 1 0 1 7 38 15 81 9 43 18 94 21 113 3 19 7 42 9 50 2 8 7 31 10 50 3
19 10 60 15 90 5 30 12 73 15 95 2 22 7 51 10 65 3 14 10 63 15 110 6 47 13
96 15 110 2 14 6 50 10 80 3 30 8 71 10 90 13 113 19 174 31 335 3 44 7 96 9
115 29 281 24 1160 -10 1535 -3 39 -8 95 -11 125 -5 58 -12 131 -19 190 -2 19
-7 60 -10 90 -4 30 -8 66 -10 80 -2 14 -7 48 -10 75 -3 28 -7 61 -10 75 -2 14
-7 43 -10 65 -7 49 -37 236 -40 250 -1 6 -5 33 -10 60 -4 28 -16 90 -26 139
-11 49 -19 92 -19 95 0 3 -4593 6 -10206 6 l-10206 0 -8 -21z"/>
<path d="M2096 4158 c58 -99 469 -591 694 -832 107 -116 476 -483 579 -576 57
-52 109 -100 115 -105 39 -37 312 -267 416 -351 771 -621 1671 -1152 2565
-1514 99 -40 194 -78 210 -85 109 -46 694 -246 759 -259 11 -3 68 -19 126 -36
58 -17 112 -33 120 -35 8 -2 60 -15 115 -30 154 -41 511 -121 665 -149 14 -2
36 -7 50 -10 14 -3 41 -8 60 -11 98 -16 277 -45 295 -49 11 -2 49 -7 85 -11
36 -4 67 -8 70 -10 3 -1 36 -6 73 -10 37 -3 77 -8 87 -10 10 -2 47 -6 82 -10
35 -3 81 -8 103 -11 52 -6 119 -12 230 -19 50 -3 108 -8 129 -10 187 -20 913
-26 1201 -11 252 13 274 15 455 32 30 2 75 6 100 8 47 4 135 14 180 21 14 2
50 7 80 10 30 3 66 8 80 10 14 2 45 7 70 10 25 3 99 15 165 25 66 10 136 21
155 24 19 3 114 21 210 40 561 110 1042 244 1595 444 101 36 133 49 190 73 11
5 43 17 70 28 98 37 276 112 373 157 29 13 81 37 115 52 157 69 656 324 770
393 26 16 49 29 51 29 9 0 316 187 466 283 143 92 398 265 480 327 19 15 62
46 95 71 76 56 278 211 285 219 3 3 39 32 80 65 80 64 337 283 409 349 25 23
74 68 110 101 168 153 532 526 716 735 22 25 42 47 45 50 44 40 443 536 474
588 6 9 -1662 12 -8324 12 -6662 0 -8330 -3 -8324 -12z"/>
</g>
</svg>
